<?xml version="1.0" encoding="utf-8"?>
<!-- Generator: Adobe Illustrator 23.0.3, SVG Export Plug-In . SVG Version: 6.00 Build 0)  -->
<svg version="1.1" xmlns="http://www.w3.org/2000/svg" xmlns:xlink="http://www.w3.org/1999/xlink" x="0px" y="0px"
	 viewBox="0 0 600 78.59" style="enable-background:new 0 0 600 78.59;" xml:space="preserve">
<style type="text/css">
	.st0{display:none;}
	.st1{display:inline;}
	.st2{fill:#E71F19;}
</style>
<g id="圖層_1">
	<g>
		<polygon points="227.41,49.12 232.82,55.12 406.06,55.12 399.97,49.12 		"/>
		<polygon points="570.29,39.24 535.65,39.24 531.47,39.24 405.76,39.24 396.35,39.24 254.27,39.24 246.81,32.88 168.74,33.2 
			161.76,24.63 69.65,24.63 60.9,38.06 28.82,38.06 28.82,39.82 67.65,39.82 67.65,39.81 174.12,39.81 220.86,39.81 226.67,46.29 
			402.05,46.29 408.12,53.82 515.88,53.82 533.26,41 570.29,41 		"/>
	</g>
</g>
<g id="圖層_2" class="st0">
	<g class="st1">
		<g>
			<rect x="501.48" y="45.93" class="st2" width="80.19" height="6.29"/>
			<rect x="405.85" y="28.03" class="st2" width="80.19" height="6.29"/>
			
				<rect x="479.82" y="36.97" transform="matrix(0.7071 0.7071 -0.7071 0.7071 172.9904 -337.4029)" class="st2" width="27.9" height="6.29"/>
		</g>
		<g>
			
				<rect x="309.36" y="45.93" transform="matrix(-1 4.492483e-11 -4.492483e-11 -1 698.915 98.141)" class="st2" width="80.19" height="6.29"/>
			
				<rect x="404.99" y="28.03" transform="matrix(-1 4.492483e-11 -4.492483e-11 -1 890.1698 62.3441)" class="st2" width="80.19" height="6.29"/>
			
				<rect x="383.3" y="36.97" transform="matrix(-0.7071 0.7071 -0.7071 -0.7071 706.5162 -212.4158)" class="st2" width="27.9" height="6.29"/>
		</g>
		<g>
			<rect x="308.36" y="45.93" class="st2" width="80.19" height="6.29"/>
			<rect x="212.73" y="28.03" class="st2" width="80.19" height="6.29"/>
			
				<rect x="286.71" y="36.97" transform="matrix(0.7071 0.7071 -0.7071 0.7071 116.4289 -200.8514)" class="st2" width="27.9" height="6.29"/>
		</g>
		<g>
			<polygon class="st2" points="319.58,62.71 302.62,62.71 302.62,56.42 322.8,56.42 			"/>
			<polygon class="st2" points="287.19,44.81 246.9,44.81 251.4,38.52 287.19,38.52 			"/>
			
				<rect x="280.97" y="47.47" transform="matrix(0.7071 0.7071 -0.7071 0.7071 122.1698 -193.72)" class="st2" width="27.9" height="6.29"/>
		</g>
		<g>
			
				<rect x="115.53" y="45.93" transform="matrix(-1 4.492483e-11 -4.492483e-11 -1 311.2596 98.141)" class="st2" width="80.19" height="6.29"/>
			
				<rect x="211.16" y="28.03" transform="matrix(-1 4.486799e-11 -4.486799e-11 -1 502.5144 62.3441)" class="st2" width="80.19" height="6.29"/>
			
				<rect x="189.47" y="36.97" transform="matrix(-0.7071 0.7071 -0.7071 -0.7071 375.6317 -75.359)" class="st2" width="27.9" height="6.29"/>
		</g>
		<g>
			<rect x="113.96" y="45.93" class="st2" width="80.19" height="6.29"/>
			<rect x="18.34" y="28.03" class="st2" width="80.19" height="6.29"/>
			
				<rect x="92.31" y="36.97" transform="matrix(0.7071 0.7071 -0.7071 0.7071 59.4906 -63.3903)" class="st2" width="27.9" height="6.29"/>
		</g>
		<polygon class="st2" points="193.01,40.07 118.82,40.07 118.82,33.78 199.01,33.78 		"/>
		<rect x="75.3" y="15.88" class="st2" width="28.09" height="6.29"/>
		
			<rect x="97.17" y="24.82" transform="matrix(0.7071 0.7071 -0.7071 0.7071 52.3227 -70.3854)" class="st2" width="27.9" height="6.29"/>
		<rect x="18.34" y="15.88" class="st2" width="6.22" height="6.29"/>
		<rect x="28.06" y="15.88" class="st2" width="6.22" height="6.29"/>
		<rect x="37.78" y="15.88" class="st2" width="6.22" height="6.29"/>
		<g>
			<polygon class="st2" points="523.56,40.91 506.6,40.91 506.6,34.62 526.78,34.62 			"/>
			<polygon class="st2" points="491.16,23.01 450.87,23.01 455.38,16.72 491.16,16.72 			"/>
			
				<rect x="484.95" y="25.67" transform="matrix(0.7071 0.7071 -0.7071 0.7071 166.4993 -344.3378)" class="st2" width="27.9" height="6.29"/>
		</g>
		<polygon class="st2" points="383.95,41.21 313.15,41.21 306.93,34.67 390.55,34.92 		"/>
	</g>
</g>
</svg>
