<?xml version="1.0" encoding="utf-8"?>
<!-- Generator: Adobe Illustrator 23.0.3, SVG Export Plug-In . SVG Version: 6.00 Build 0)  -->
<svg version="1.1" id="圖層_1" xmlns="http://www.w3.org/2000/svg" xmlns:xlink="http://www.w3.org/1999/xlink" x="0px" y="0px"
	 viewBox="0 0 300 300" style="enable-background:new 0 0 300 300;" xml:space="preserve">
<style type="text/css">
	.st0{fill:#9F5D5A;}
	.st1{fill:#D8593D;}
	.st2{fill:#CC6046;}
	.st3{fill:#837D69;}
	.st4{fill:#A55856;}
	.st5{fill:#D15F49;}
	.st6{fill:#DC4F3B;}
	.st7{fill:#CA6B48;}
	.st8{fill:#AA9F56;}
	.st9{fill:#D06C4E;}
	.st10{fill:#D05742;}
	.st11{fill:#9A6561;}
	.st12{fill:#A1AD5C;}
	.st13{fill:#9B6460;}
	.st14{fill:#A7A862;}
	.st15{fill:#D16745;}
	.st16{fill:#878569;}
	.st17{fill:#D86C4A;}
	.st18{fill:#A89458;}
	.st19{fill:#AD6663;}
	.st20{fill:#919F57;}
	.st21{fill:#BBB45A;}
	.st22{fill:#DA6847;}
	.st23{fill:#A75655;}
	.st24{fill:#A55A56;}
	.st25{fill:#DF533C;}
	.st26{fill:#FDFBFB;}
	.st27{fill:#FBF8F8;}
	.st28{fill:#F9F5F5;}
	.st29{fill:#D74B3F;}
	.st30{fill:#E15A39;}
	.st31{fill:#DA603F;}
	.st32{fill:#FDF9F9;}
	.st33{fill:#9FA95A;}
	.st34{fill:#D94C44;}
	.st35{fill:#FEFCFC;}
	.st36{fill:#B3AD50;}
	.st37{fill:#D66040;}
	.st38{fill:#90A55C;}
	.st39{fill:#D9573F;}
	.st40{fill:#A1AE54;}
	.st41{fill:#D16A47;}
	.st42{fill:#CA644B;}
	.st43{fill:#FEFCFB;}
	.st44{fill:#CC5349;}
	.st45{fill:#CF754C;}
	.st46{fill:#D0725B;}
	.st47{fill:#A2A65C;}
	.st48{fill:#ADAF56;}
	.st49{fill:#D85F3F;}
	.st50{fill:#FCF5F4;}
	.st51{fill:#DC4B3C;}
	.st52{fill:#D55A41;}
	.st53{fill:#ADAD52;}
	.st54{fill:#DF4D37;}
	.st55{fill:#DF5538;}
	.st56{fill:#91A75C;}
	.st57{fill:#D35C42;}
	.st58{fill:#D76A40;}
	.st59{fill:#E65139;}
	.st60{fill:#DA533E;}
	.st61{fill:#FDFAFA;}
	.st62{fill:#E04C38;}
	.st63{fill:#9B9E62;}
	.st64{fill:#86A358;}
	.st65{fill:#FDF8F8;}
	.st66{fill:#E0553B;}
	.st67{fill:#E15D3B;}
	.st68{fill:#D25649;}
	.st69{fill:#90A65A;}
	.st70{fill:#E94636;}
	.st71{fill:#D65E42;}
</style>
<g>
	<path class="st0" d="M105.58,254.28c-3.51-4.36-7.03-8.72-10.54-13.08c-1.13-2.45-2.26-4.91-3.39-7.36
		c-4.54-11.3-15.51-16.77-23-25.39c-1.18-3.51-3.78-5.58-7.07-6.95c-1.44-1.19-2.87-2.37-4.31-3.56
		c-9.59-14.72-16.56-30.56-20.17-47.8c14.76,0,29.52,0,44.28,0c-10.08-0.88-15.23-7.97-15.89-15.69
		c-0.48-5.62-2.67-11.41-1.36-17.24c2.38,0,4.76-0.01,7.14-0.01c1.05,5.24-3.31,13.93,8.04,12.6c5.04,2.71,11.32,4,9.19,12.62
		c-0.65,2.63,0.99,7.83,6.36,7.61c2.39-0.1,5.79,0.55,6.98-0.74c5.65-6.16,5.44-6.36,7.46-6.77c1.84,2.45-2.2,5.34,0.57,7.73
		c0.02,0.81-0.01,1.62-0.11,2.43c-3.14,0.86-6.43,1.38-9.4,2.65c-6.97,2.98-9.97,7.77-5.86,15.16c-6.37-1.73-10.75,0.06-11.54,7.1
		c-0.61,5.37,4.06,5.79,7.48,6.52c7.34,1.57,6.32-4.48,7.26-8.63c1.35,4.28,6.06-4.11,7.3,2.06c0.76,3.77,0.87,6.01-1.97,9.65
		c-3.93,5.04-9.05,12.32,1.68,17.24c2.19,1.01,3.34,4.29,4.97,6.52c-0.01,10.9,0.11,21.81-0.09,32.71
		C109.52,247.55,111.31,252.43,105.58,254.28z"/>
	<path class="st1" d="M223.81,61.77c2.32,5.43,7.6,6.24,12.33,7.91c0.04,0.64,0.18,1.27,0.4,1.87c-6.12,3.97-7.71,7.57,1.25,9.21
		c2.16,0.4,6.64-1.41,5.52,1.86c-2.54,7.4,2.39,16.73-5.39,23.06c-4.28-4.67-4.61-9.55-3.38-14.71c0.51-2.12,1.23-4.59-1.67-5.01
		c-2.42-0.35-4.09,2.05-3.61,4.09c1.87,8.03-2.57,12.42-8.74,15.57c-2.12,1.09-3.82,2.03-3.48,4.38c0.42,2.93,2.7,4.6,5.46,3.8
		c9.2-2.66,5.34,4.63,6.45,8.14c-2.82-1.37-6.7-4.63-8.63-1.44c-3.21,5.32-2.86,11.6,0.92,17.13c-3.31-0.35,3.38,16.93-7.34,4.18
		c-0.58-0.69-5.23,0.69-6.62,2.29c-4,4.61-9.06,3.23-13.89,3.52c-4.24-9.69-8.66,1.03-12.97-0.11c0.31-4.14,0.62-8.28,0.93-12.42
		c9.92,6.31,17.26,0.41,24.66-5.21c2.06-2.4,5.1-4.32,1.4-8.11c-1.8-1.84-3.79-4.76-0.59-7.69c6.39-5.85,2.38-11.33-0.8-16.79
		c9.88-2.84,1.68-8.65,2.14-13.03c-2.64-5.36-3.88-11.54-9.08-15.39c-0.22-7.87,6.23-3.68,9.5-5.26
		C213.65,62.99,218.73,62.38,223.81,61.77z"/>
	<path class="st2" d="M251.88,183.1c0.11,7.76-5.65,13.33-7.57,20.33c-6.93,7.57-10.81,17.84-20.4,23.05
		c-0.32-5.8,6.57-9.29,4.95-15.5c-6.03-7.95,1.98-18.63-4.72-26.77c-4.35,2.37-2.26,6.09-2.89,9.02c-0.84,0-1.68,0-2.52-0.01
		c-2.97-2.99-6.69-5.85-1.39-10.03c4.21-3.32,4.08-8.04,3.94-12.74c3.57-10.08,13.44-18.07,10.11-30.45
		c3.6-4.53,12.12-6.59,7.61-15.18c0.85-0.85,1.7-1.71,2.54-2.56c6.6,6.61,6.86,13-0.34,19.48c-1.5,1.35-4.98,2.67-2.18,5.89
		c1.27,7.95,8.18,17.39-8.04,20.89c5.24,2.32,9.63,1.53,10.79,6.52c2.51,10.73,6.37,4.56,9.88,0.45
		C251.73,178.03,251.8,180.57,251.88,183.1z"/>
	<path class="st3" d="M92.49,53.9c-1.31-5.3-11.12-5-9.3-10.04c2.07-5.71,9.45-1.87,14.44-2.65c12.47-1.96,24.96-5.51,37.48-0.21
		c-0.9,2.59-1.81,5.18-2.71,7.77c-3.6,6.8-3.7,13.58,0.08,20.35c0.02,0.87,0.05,1.74,0.07,2.61c-5.18,4.11-12.1,2.24-17.63,5.14
		c-9.79-1.08-18.41,4.66-27.99,4.82c-4.04-2.51-0.75-4.96,0.07-7.43c4.29,0.07,6.58-3.71,10.03-5.24
		c4.66-3.61,9.31-7.22,14.35-11.12C104.66,54.46,98.75,53.25,92.49,53.9z"/>
	<path class="st4" d="M64.13,117.22c-1.31,5.83,0.88,11.62,1.36,17.24c0.66,7.72,5.82,14.81,15.89,15.69c-14.76,0-29.52,0-44.28,0
		c-0.41-2.56-0.82-5.13-1.22-7.69c-0.03-5-0.05-10-0.08-15.01c0.86-7.66,1.73-15.32,2.59-22.98c1.15-1.67,2.29-3.34,3.44-5.01
		c6.35,1.28,11.57,4.18,14.69,10.13c-2.73,0.44-7.63-1.19-7.78,1.46c-0.26,4.58,4.7,3.19,7.78,3.61
		C58.3,117.76,62.75,112.89,64.13,117.22z"/>
	<path class="st5" d="M142.69,281.46l-1.19,0.29l-1.21-0.15c-1.19-3.91-6.92-0.31-7.81-4.72c1.77-7.58,6.88-14.41,5.13-22.79
		c0-0.86,0-1.71,0-2.57c0.01-0.83,0.02-1.67,0.03-2.5c6.41,0.98,13.4-4.52,19.13,0.32c7.43,6.27,10.82,4.4,13.39-4.12
		c0.9-2.99,3.6-5.45,5.47-8.15c0.81-0.34,1.62-0.68,2.42-1.02c-0.16,2.88,0.41,6.05-0.61,8.58c-3.68,9.09,0.92,10.07,8.21,9.07
		c0.76-3.72-8.17-4.98-2.43-9.78c3.36,2.53,6.73,5.07,10.09,7.6c0.91,7.36-8.23,5.1-9.72,10.17c-3.63,3.95-7.26,7.89-10.89,11.84
		c-6.44,3.18-11.57,9.9-20.1,7.44C149.11,277.38,145.58,273.07,142.69,281.46z M146.96,264.4c-3.75,0.51-6.53,2.3-6.22,6.4
		c0.24,3.26,3.15,3.45,5.74,3.45c3.21,0.01,5.9-0.77,6.03-4.72C152.64,265.73,150.46,264.35,146.96,264.4z M147.73,259.19
		c2.44-0.7,6.66,1.34,6.41-3.48c-0.15-2.87-2.75-4.09-5.56-3.2c-2.51,0.8-6.76-1.07-7.17,3.1
		C140.93,260.37,145.25,258.52,147.73,259.19z"/>
	<path class="st6" d="M241.54,122.27c-0.85,0.85-1.7,1.71-2.54,2.56c-3.88-0.71-0.69,11.18-7.94,4.45c0.67-2.85-0.83-5.07-2.12-7.35
		c-1.11-3.51,2.74-10.8-6.45-8.14c-2.76,0.8-5.04-0.87-5.46-3.8c-0.34-2.35,1.35-3.29,3.48-4.38c6.17-3.16,10.6-7.55,8.74-15.57
		c-0.47-2.04,1.2-4.44,3.61-4.09c2.9,0.42,2.18,2.88,1.67,5.01c-1.23,5.16-0.89,10.04,3.38,14.71c7.79-6.32,2.86-15.65,5.39-23.06
		c1.12-3.27-3.36-1.46-5.52-1.86c-8.96-1.64-7.37-5.23-1.25-9.21c7.84,2.87,12.97,8.95,17.96,15.19c0.76,2.53,1.52,5.06,2.28,7.6
		C255.41,105.67,246,112.62,241.54,122.27z"/>
	<path class="st7" d="M228.85,210.98c1.61,6.21-5.27,9.7-4.95,15.5c-0.12,0.8-0.02,1.57,0.29,2.32c-2.78,2.21-5.55,4.43-8.33,6.64
		c-2.48,1.82-4.96,3.64-7.44,5.46c-1.63,1.01-3.27,2.01-4.9,3.02c1.69-6.55-4.66-7.06-7.61-10.11c0.84-0.84,1.68-1.69,2.52-2.53
		c2.42-9.25-1.6-16.36-7.59-22.81c9.53-4.64,22.19-3.56,27.88-15.23c0.84,0.01,1.68,0.01,2.52,0.01
		C221.46,200.14,217.96,208.64,228.85,210.98z"/>
	<path class="st4" d="M64.13,117.22c-1.37-4.33-5.83,0.54-7.62-2.55c0-1.69,0-3.38,0-5.07c1.14,0.54,2.24,1.41,3.44,1.57
		c2.95,0.39,6.98,4.11,8.66-0.07c2.21-5.5-2.8-4.39-6.24-5.81c-5.85-2.41-10.73-7.17-16.02-10.94c-1.5-4.54,2.69-7.67,2.94-11.77
		c1.56-1.36,3.12-2.72,4.67-4.09c0.6,0.18,1.21,0.32,1.83,0.41c5.27,0.87,9.77,2.52,9.14,9.21c-0.35,3.69,1.98,5.01,4.94,6.03
		c14.23,4.94,14.22,4.96,5.63,15.45c-0.51,0.63-0.79,1.45-1.18,2.18c-2.5,0.97-2.18,3.53-3.05,5.42
		C68.89,117.21,66.51,117.21,64.13,117.22z"/>
	<path class="st8" d="M175.53,43.44c12.31-5.72,22.58,0.3,32.97,5.7c-0.04,2.41-0.08,4.83-0.12,7.24
		c-3.88,0.52-8.77-5.35-11.12-0.66c-3.49,6.95-6.1,0.25-8.97,0.64c-10.45-4.54-12.23,6.05-17.72,10.16c-0.85-1.7-1.7-3.4-2.55-5.1
		c1.36-3.24,5.82-5.69,2.55-10.09C175.85,50.99,175.67,47.21,175.53,43.44z"/>
	<path class="st9" d="M105.58,254.28c5.73-1.85,3.94-6.74,4.02-10.61c0.21-10.9,0.09-21.81,0.09-32.71c0,0,0.37,0.19,0.36,0.19
		c1.46,2.47,2.93,4.93,4.4,7.4c1.05,6.93-1.89,16.53,10.6,15.76c-1.17,11.02-7.59,20.88-7.16,32.26l-0.16,0.98
		C111.19,265.42,109.69,258.65,105.58,254.28z"/>
	<path class="st10" d="M241.54,122.27c4.46-9.65,13.86-16.6,15.24-27.93c3.13,1.73,2.19,4.9,2.68,7.57
		c-0.86,5.12-1.72,10.25-2.58,15.37c-6.41,10.34,0.89,22.76-5.02,33.18c-0.25-3.49-0.5-6.98-0.75-10.47
		c-0.78,8.15-6.45,7.89-12.09,7.66c-2.8-3.23,0.67-4.54,2.18-5.89C248.41,135.27,248.15,128.88,241.54,122.27z"/>
	<path class="st11" d="M251.86,150.45c5.91-10.42-1.39-22.83,5.02-33.18c6.79,5.7,4.2,13.8,5.34,20.95
		c-0.06,4.8-0.13,9.6-0.19,14.39c-1.67,2.29-3.45,4.54-2.34,7.67c-0.84,3.38-1.68,6.76-2.52,10.14c-1,4.55-1.77,9.18-5.29,12.67
		c-0.07-2.53-0.15-5.07-0.22-7.6C251.72,167.15,251.79,158.8,251.86,150.45z"/>
	<path class="st4" d="M87,74.25c-0.81,2.47-4.11,4.91-0.07,7.43c-1.49,6.76-4.13,5.34-8.42,1.86c-5.29-4.27-9.77-10.58-17.93-9.77
		c0.94-1.58,1.87-3.16,2.81-4.74c2.88-2.49,5.76-4.98,8.63-7.47c3.73,0.75,6.78-0.9,9.78-2.73c0.97,2.44,2.67,4.17,5.1,5.17
		C86.94,67.41,86.97,70.83,87,74.25z"/>
	<path class="st12" d="M169.64,26.22c1.03,4.33,1.88,8.64-1.6,12.39c-5.41-2.63-8.28-1.46-7.62,5.06c-3.34,0.34-6.46-0.26-9.24-2.24
		c-0.94-6.11-1.79-12.14,1.61-17.94c2.62-4.46,5.29-7.57,10.35-2.94c0.14,2.74-0.75,6.38,0.67,8
		C165.78,30.81,167.56,26.95,169.64,26.22z"/>
	<path class="st13" d="M86.91,64c-2.44-1-4.13-2.72-5.1-5.17c2.97-2.93,6.46-4.72,10.68-4.93c6.27-0.65,12.18,0.56,18.9,3.99
		c-5.03,3.9-9.69,7.51-14.35,11.12C93.66,67.34,90.29,65.67,86.91,64z"/>
	<path class="st14" d="M132.4,48.77c0.91-2.59,1.81-5.18,2.72-7.77c5.02,1.67,10.05,3.35,15.07,5.02c1.74,1.77,3.48,3.54,5.22,5.31
		c-3.28,1.91-2.26,9.72-3.63,8.07C146.45,52.98,134.03,60.4,132.4,48.77z"/>
	<path class="st15" d="M195.92,233.8c2.95,3.06,9.3,3.56,7.61,10.11c-3.4,2.53-6.81,5.07-10.21,7.6c-3.36-2.53-6.73-5.07-10.09-7.6
		c0.01-0.84,0.02-1.68,0.03-2.51C188.45,240.48,193.06,238.6,195.92,233.8z"/>
	<path class="st16" d="M208.37,56.38c0.04-2.41,0.09-4.83,0.13-7.24c5.01,1.52,9.97,3.27,15.04,4.52c10.07,2.49,3.41,5.3,0.27,8.1
		c-5.08,0.61-10.16,1.22-15.25,1.83C208.5,61.2,208.44,58.79,208.37,56.38z"/>
	<path class="st17" d="M117.74,267.55c0,0,0.16-0.98,0.16-0.98c3.2-1.63,6.39-3.26,9.59-4.89c10.19,5.12,6.73-3.43,7.63-7.62l1.25,0
		l1.25,0.02c1.75,8.37-3.36,15.2-5.13,22.79c-4.94-1.98-9.89-3.95-14.83-5.93C117.68,269.82,117.71,268.68,117.74,267.55z"/>
	<path class="st18" d="M155.41,51.33c-1.74-1.77-3.48-3.54-5.22-5.31c0.33-1.53,0.66-3.06,0.99-4.59c2.78,1.97,5.9,2.57,9.24,2.24
		c2.58,0,5.15-0.01,7.73-0.01c2.46-0.07,4.92-0.14,7.38-0.21c0.15,3.76,0.32,7.54-4.97,7.89C165.51,51.33,160.46,51.33,155.41,51.33
		z"/>
	<path class="st0" d="M46.35,94.35c5.29,3.77,10.17,8.52,16.02,10.94c3.43,1.42,8.45,0.3,6.24,5.81c-1.68,4.19-5.71,0.47-8.66,0.07
		c-1.19-0.16-2.29-1.02-3.44-1.57c-3.12-5.96-8.34-8.86-14.69-10.13c0.08-1.61,0.17-3.23,0.25-4.85
		C43.5,94.53,44.93,94.44,46.35,94.35z"/>
	<path class="st19" d="M262.22,138.22c-1.14-7.15,1.45-15.24-5.34-20.95c0.86-5.12,1.72-10.25,2.58-15.37
		c7.19,10.95,3.82,23.31,4.71,35.1C263.53,137.42,262.88,137.83,262.22,138.22z"/>
	<path class="st20" d="M168.14,43.65c-2.58,0-5.15,0.01-7.73,0.01c-0.66-6.51,2.22-7.69,7.62-5.06
		C168.07,40.29,168.11,41.97,168.14,43.65z"/>
	<path class="st21" d="M169.64,26.22c-2.08,0.73-3.86,4.59-5.84,2.33c-1.42-1.62-0.53-5.26-0.67-8
		C166.78,20.73,169.09,22.46,169.64,26.22z"/>
	<path class="st22" d="M142.69,281.46c2.9-8.39,6.42-4.08,9.91-0.49C149.3,281.13,145.99,281.3,142.69,281.46z"/>
	<path class="st23" d="M109.3,142.53c-2.02,0.41-1.8,0.61-7.46,6.77c-1.19,1.3-4.59,0.65-6.98,0.74c-5.38,0.22-7.01-4.98-6.36-7.61
		c2.12-8.62-4.15-9.92-9.19-12.62c2.64-2.53,5.29-5.06,7.93-7.59c12.3-8.6,12.3-8.6,22.5,7.65c0.08,0.84,0.09,1.68,0.04,2.53
		c-3.66,0.45-7.09,1.35-9.3,4.77c3.03,0.96,5.93,1.87,8.82,2.78C109.3,140.81,109.3,141.67,109.3,142.53z"/>
	<path class="st24" d="M109.69,210.96c-1.63-2.23-2.78-5.52-4.97-6.52c-10.73-4.92-5.61-12.2-1.68-17.24
		c2.84-3.64,2.73-5.88,1.97-9.65c-1.25-6.16-5.95,2.22-7.3-2.06c-1.07-1.66-2.14-3.33-3.2-4.99c-4.11-7.39-1.11-12.19,5.86-15.16
		c2.97-1.27,6.26-1.79,9.4-2.65c0.03,6.77,0.07,13.54,0.1,20.31c0.06,12.72,0.13,25.43,0.2,38.15L109.69,210.96z"/>
	<path class="st25" d="M109.86,173c-0.04-6.77-0.07-13.54-0.11-20.31c0.1-0.81,0.13-1.62,0.11-2.43c3.73,2.76,7.02,7.87,12.33,2.33
		c2.49,0.03,4.99-0.09,7.46,0.13c3.83,0.35,9.08-1.6,10.13,4.32c0.7,3.93,1.98,8.85-1.42,11.82c-3.36,2.94-8.01,2.28-11.46-0.6
		c-4.54-3.8-7.64-1.69-10.32,1.98C114.78,172.7,113.4,175.2,109.86,173z"/>
	<path class="st26" d="M122.19,152.59c-5.3,5.54-8.59,0.43-12.33-2.33c-2.77-2.39,1.27-5.27-0.57-7.73c0-0.86,0-1.72,0-2.58
		c0.31-1.39,0.63-2.79,0.94-4.18c13.27-6.82,14.81-5.59,14.89,11.86C124.15,149.29,123.17,150.94,122.19,152.59z"/>
	<path class="st27" d="M87.23,122.22c-2.64,2.53-5.29,5.06-7.93,7.59c-11.35,1.33-6.99-7.36-8.04-12.6
		c0.86-1.89,0.55-4.45,3.05-5.42C84.33,108.19,88.85,111.4,87.23,122.22z"/>
	<path class="st28" d="M94.5,170.5c1.07,1.66,2.14,3.33,3.2,4.99c-0.95,4.15,0.08,10.2-7.26,8.63c-3.42-0.73-8.09-1.15-7.48-6.52
		C83.75,170.57,88.13,168.77,94.5,170.5z"/>
	<path class="st29" d="M206.01,97.28c3.18,5.46,7.19,10.94,0.8,16.79c-3.2,2.93-1.21,5.85,0.59,7.69c3.7,3.79,0.66,5.71-1.39,8.11
		c-2.07-0.05-3.93-0.49-5.03-2.5c4.44-3.8-0.04-7.78-1.77-7.62c-9.9,0.92-16.63-8.06-26.12-7.62c0-1.68,0-3.36,0-5.05
		c7.43-3.16,8.12-8.56,5.06-15.21c1.64-0.72,3.28-1.44,4.91-2.16l1.2-0.02c0,0,1.2,0.08,1.2,0.08c1.8,1.52,3.6,3.03,5.4,4.55
		c1.55,5.72,1.54,13.87,9.12,13.86c6.23-0.01,2.41-7.1,3.54-10.9l1.25-0.14L206.01,97.28z"/>
	<path class="st30" d="M180.41,147.5c4.31,1.14,8.73-9.58,12.97,0.11c-3.19,0.52-6.4,1.03-2.54,5.07l0.01,0
		c0.49,5.52-5.85,4.26-7.55,7.61c-0.8,4.56,5.2,4.94,5.76,10.5c-9.92-3.86-10.77,3.99-13.42,9.78c-2.54,1.69-5.07,3.38-7.61,5.06
		c1.74-13.51-10.49-6.21-15.16-10.18c-0.02-1.67-0.03-3.34-0.05-5.02c1.7-2.98,5.48-3.9,7.55-3.33c11.24,3.09,11.71-4.5,12.71-11.86
		c2.63-1.15,4.5-2.91,4.78-5.95C178.72,148.7,179.56,148.1,180.41,147.5z"/>
	<path class="st31" d="M190.84,152.68c-3.86-4.05-0.65-4.56,2.54-5.07c4.83-0.29,9.88,1.09,13.89-3.52c1.39-1.6,6.04-2.98,6.62-2.29
		c10.72,12.75,4.03-4.53,7.34-4.18c2.91,0.2,5.46-0.66,7.66-2.56c0.05,2.04,0.48,3.89,2.51,4.94c3.32,12.37-6.54,20.36-10.11,30.45
		c-2.38-0.01-4.76-0.03-7.14-0.04c-1-1.7-2.01-3.41-3.01-5.11c1.35-4.65,8.08,1.95,8.75-4.15
		C211.78,152.84,203.6,144.91,190.84,152.68z"/>
	<path class="st8" d="M199.07,68.86c5.2,3.85,6.44,10.03,9.08,15.39c-2.37,0.84-4.75,1.68-7.13,2.52c-0.86-0.02-1.72-0.04-2.58-0.06
		c-0.7-8.18-4.87-10.41-12.45-7.61c-3.45,1.28-7.16,1.84-10.76,2.72c-0.75-0.69-1.5-1.39-2.25-2.09c-0.99-7.81,5.6-9.77,10.22-13.25
		C189.15,62.91,193.27,71.53,199.07,68.86z"/>
	<path class="st32" d="M180.41,147.5c-0.85,0.6-1.7,1.19-2.54,1.79c-2.43-0.41-4.85-0.83-7.28-1.24c-1.52-1.32-3.04-2.65-4.55-3.98
		c-1.33-7-1.06-13.61,4.69-18.86c2.52,0.59,5.03,1.18,7.55,1.77c1.02,2.7,2.05,5.4,3.07,8.09
		C181.03,139.22,180.72,143.36,180.41,147.5z"/>
	<path class="st33" d="M199.07,68.86c-5.8,2.66-9.92-5.96-15.86-2.37c-4.17-6.31,0.67-8.11,5.07-10.14c2.87-0.39,5.48,6.3,8.97-0.64
		c2.35-4.68,7.24,1.19,11.12,0.66c0.06,2.41,0.13,4.82,0.2,7.22C205.31,65.18,198.85,61,199.07,68.86z"/>
	<path class="st34" d="M181.34,135.09c-1.02-2.7-2.05-5.4-3.07-8.09c0.23-1.68,1.55-4.26,2.52-3.41c6.1,5.37,13.33,3.37,20.19,3.8
		c1.09,2,2.96,2.45,5.03,2.5C198.61,135.5,191.26,141.4,181.34,135.09z"/>
	<path class="st35" d="M228.89,135.07c-2.2,1.9-4.76,2.76-7.66,2.56c-3.77-5.53-4.13-11.82-0.92-17.13
		c1.93-3.19,5.81,0.07,8.63,1.44c1.29,2.28,2.79,4.5,2.12,7.35C228.75,130.62,228.98,132.9,228.89,135.07z"/>
	<path class="st36" d="M201.03,86.77c2.38-0.84,4.75-1.68,7.13-2.52c-0.47,4.38,7.73,10.19-2.15,13.03c0,0-1.25-0.13-1.25-0.13
		s-1.25,0.14-1.25,0.14c-1.7-0.25-3.41-0.5-5.11-0.75C198.1,92.96,199.3,89.79,201.03,86.77z"/>
	<path class="st15" d="M214.14,170.41c2.38,0.01,4.76,0.03,7.14,0.04c0.13,4.7,0.27,9.42-3.94,12.74
		c-5.31,4.18-1.58,7.03,1.39,10.03c-5.69,11.68-18.35,10.59-27.88,15.23l-0.03-0.02c3.52-9.55,7.04-19.11,10.56-28.66
		c2.67,2.13,4.03,7.56,8.61,5.12C215.8,181.79,213.95,175.61,214.14,170.41z"/>
	<path class="st37" d="M251.86,150.45c-0.07,8.35-0.14,16.7-0.21,25.05c-3.51,4.11-7.37,10.28-9.88-0.45
		c-1.17-4.98-5.55-4.2-10.79-6.52c16.22-3.5,9.31-12.95,8.04-20.89c5.64,0.23,11.31,0.48,12.09-7.66
		C251.36,143.47,251.61,146.96,251.86,150.45z"/>
	<path class="st15" d="M228.85,210.98c-10.9-2.33-7.39-10.84-7.61-17.75c0.63-2.93-1.46-6.65,2.89-9.02
		C230.83,192.35,222.82,203.02,228.85,210.98z"/>
	<path class="st10" d="M228.89,135.07c0.09-2.17-0.13-4.45,2.17-5.78c7.25,6.72,4.07-5.16,7.94-4.45
		c4.51,8.59-4.01,10.65-7.61,15.18C229.37,138.96,228.94,137.11,228.89,135.07z"/>
	<path class="st0" d="M87.23,122.22c1.62-10.82-2.91-14.02-12.92-10.43c0.39-0.73,0.67-1.55,1.18-2.18
		c8.59-10.49,8.61-10.51-5.63-15.45c-2.96-1.03-5.29-2.35-4.94-6.03c0.63-6.69-3.87-8.34-9.14-9.21c1.6-1.71,3.2-3.42,4.79-5.13
		c8.16-0.81,12.64,5.5,17.93,9.77c4.3,3.47,6.94,4.89,8.42-1.86c9.58-0.15,18.2-5.9,27.99-4.82c-0.79,3.29-1.57,6.59-2.36,9.89
		c-0.06,3.38-0.13,6.76-0.19,10.13c-1.42,10.95-3.55,21.85-2.64,32.99C99.53,113.62,99.53,113.62,87.23,122.22z"/>
	<path class="st38" d="M155.41,51.33c5.05,0,10.1,0,15.15,0c3.27,4.4-1.19,6.86-2.55,10.09c-5.5,3.46-5.53,19.55-17.68,7.66
		c-2.83-4.56-8.51,0.65-12.75-4.87c-4.42-5.76-4.3,1.95-5.1,4.9c-3.79-6.77-3.69-13.55-0.08-20.35
		c1.63,11.63,14.05,4.22,19.38,10.64C153.15,61.05,152.13,53.24,155.41,51.33z"/>
	<path class="st39" d="M112.57,86.75c0.79-3.3,1.57-6.59,2.36-9.89c5.53-2.9,12.45-1.02,17.63-5.14c10.21,5.81,2.5,15.28,4.65,22.73
		C130.43,87.3,122.24,84.65,112.57,86.75z"/>
	<path class="st40" d="M137.2,94.46c-2.14-7.46,5.57-16.93-4.65-22.73c-0.02-0.87-0.05-1.74-0.07-2.61c0.8-2.95,0.68-10.66,5.1-4.9
		c4.23,5.53,9.92,0.31,12.75,4.87c-0.14,5.23-0.45,10.49,2.46,15.23c-6.33-1.07-10.67,1.21-12.59,7.52c-0.77,0.8-1.54,1.61-2.3,2.41
		L137.2,94.46z"/>
	<path class="st0" d="M86.91,64c3.38,1.67,6.75,3.34,10.12,5.01c-3.46,1.53-5.74,5.31-10.03,5.24C86.97,70.83,86.94,67.41,86.91,64z
		"/>
	<path class="st0" d="M56.51,109.6c0,1.69,0,3.38,0,5.07c-3.08-0.43-8.04,0.97-7.78-3.61C48.88,108.41,53.78,110.04,56.51,109.6z"/>
	<path class="st41" d="M175.63,237.06c-1.88,2.7-4.57,5.15-5.47,8.15c-2.57,8.52-5.96,10.39-13.39,4.12
		c-5.73-4.83-12.72,0.67-19.13-0.32c1.16-5.03,6.36-9.38,2.52-15.24c8.07-7.5,16.51-13,27.45-5.13
		C167.53,234.08,169.75,237.32,175.63,237.06z"/>
	<path class="st42" d="M137.61,254.09l-1.25-0.02c0,0-1.25,0-1.25,0c-5.82-0.74-6.02,4.14-7.63,7.62c-3.2,1.63-6.4,3.26-9.59,4.89
		c-0.43-11.38,5.99-21.24,7.16-32.26c2.84-3.42,1.08-7.07,0.53-10.65c6.58-6.61,2.42-15.31,4.44-22.81l0,0
		c11.76,1.72,5.11,9.57,5.07,15.21c0.83,5.9,1.67,11.8,2.5,17.7c-6.7,5.92-9.17,11.84,0.01,17.75
		C137.61,252.38,137.61,253.24,137.61,254.09z"/>
	<path class="st43" d="M175.63,237.06c-5.89,0.26-8.1-2.99-8.03-8.41c1.12-5.34,2.63-10.43,8.13-13.04c1.83,1.8,3.66,3.59,5.49,5.39
		c-0.06,3.4-0.12,6.8-0.18,10.21c-0.99,1.61-1.99,3.23-2.98,4.84C177.25,236.38,176.44,236.72,175.63,237.06z"/>
	<path class="st44" d="M178.06,236.04c0.99-1.61,1.99-3.23,2.98-4.84c2.15,0.26,1.31-5.2,4.75-2.48c-0.84,4.23-1.69,8.45-2.53,12.68
		c-0.01,0.84-0.02,1.68-0.03,2.51c-5.74,4.81,3.19,6.06,2.43,9.78c-7.3,1-11.89,0.02-8.21-9.07
		C178.47,242.1,177.9,238.92,178.06,236.04z"/>
	<path class="st45" d="M137.61,251.52c-9.18-5.91-6.71-11.83-0.01-17.75c0.85,0,1.71,0.01,2.56,0.01
		c3.85,5.85-1.35,10.21-2.52,15.24C137.63,249.85,137.62,250.69,137.61,251.52z"/>
	<path class="st22" d="M146.96,264.41c3.5-0.06,5.67,1.31,5.55,5.13c-0.13,3.94-2.82,4.73-6.03,4.72c-2.59-0.01-5.5-0.19-5.74-3.45
		C140.43,266.7,143.21,264.91,146.96,264.41z"/>
	<path class="st46" d="M147.73,259.19c-2.47-0.67-6.8,1.18-6.33-3.59c0.42-4.17,4.66-2.3,7.17-3.1c2.81-0.89,5.41,0.33,5.56,3.2
		C154.39,260.53,150.17,258.49,147.73,259.19z"/>
	<path class="st15" d="M185.78,228.72c-3.44-2.72-2.6,2.74-4.75,2.48c0.06-3.4,0.12-6.8,0.18-10.21c1.26-3.36,7.26-4.14,4.21-10.22
		c-1.55-3.1,3.41-1.65,5.39-2.35l0.03,0.02c5.99,6.45,10.01,13.56,7.59,22.81C195.07,226.21,190.13,228.95,185.78,228.72z"/>
	<path class="st5" d="M185.78,228.72c4.34,0.22,9.28-2.51,12.65,2.54c-0.84,0.84-1.68,1.69-2.52,2.53c-2.86,4.8-7.47,6.68-12.66,7.6
		C184.1,237.18,184.94,232.95,185.78,228.72z"/>
	<path class="st47" d="M152.79,84.31c-2.91-4.74-2.6-10-2.46-15.23c12.15,11.89,12.18-4.21,17.68-7.66c0.85,1.7,1.7,3.4,2.55,5.1
		c-1.68,3.37-3.37,6.74-5.05,10.12c-8.78,2.71-7.08,7.46-2.49,12.77c-0.88,2.45-1.76,4.91-2.64,7.36c-0.81,0.08-1.61,0.2-2.41,0.34
		c-0.93-2.53-6.39-0.54-5.18-5.2C152.79,89.38,152.79,86.85,152.79,84.31z"/>
	<path class="st48" d="M165.51,76.63c1.68-3.37,3.37-6.74,5.05-10.12c5.49-4.11,7.27-14.7,17.72-10.16
		c-4.4,2.02-9.24,3.83-5.07,10.14c-4.62,3.48-11.21,5.44-10.22,13.24c-0.85-0.29-1.7-0.57-2.55-0.85
		C169.32,76.99,167.47,76.69,165.51,76.63z"/>
	<path class="st49" d="M135.1,216.07c0.04-5.65,6.69-13.5-5.07-15.22c-1.05-5.85,2.39-10.27,4.44-15.27
		c2.24-5.46,0.06-9.71-6.2-11.24c-2.49-0.61-4.21-4.92-7.48-1.63c-2.23,2.25,2.61,27.47,5.7,29.09c0.79,0.42,2.33-0.59,3.53-0.95
		c-2.03,7.5,2.14,16.2-4.44,22.81c-1.63-6.23-4.02-10.8-11.13-5.11c-1.47-2.47-2.93-4.94-4.4-7.4c-0.06-12.71-0.13-25.43-0.19-38.15
		c3.54,2.2,4.91-0.3,6.71-2.76c2.68-3.67,5.78-5.78,10.32-1.98c3.44,2.88,8.1,3.54,11.46,0.6c3.4-2.98,2.12-7.89,1.42-11.82
		c-1.05-5.91-6.29-3.96-10.13-4.32c-2.47-0.23-4.97-0.1-7.46-0.13c0.98-1.65,1.96-3.31,2.94-4.96c2.47,0.84,4.94,1.67,7.42,2.51
		c7.03,1.28,13.45-2.37,20.3-2.54c0.84,0.01,1.67,0.01,2.51,0.01c-0.36,2.29,5.16,1.65,2.53,5.07
		c-13.57,2.89-16.23,10.77-7.61,22.63c-4.85-0.17-10.23,0.23-9.89,6.44c0.37,6.66-5.06,15.17,4.74,19.64
		c-1.67,5.72-3.34,11.45-5.01,17.17C138.45,217.73,136.77,216.9,135.1,216.07z"/>
	<path class="st50" d="M114.45,218.56c7.11-5.7,9.5-1.12,11.13,5.11c0.55,3.59,2.31,7.24-0.53,10.65
		C112.56,235.09,115.5,225.48,114.45,218.56z"/>
	<path class="st45" d="M127.49,261.69c1.6-3.48,1.81-8.36,7.63-7.62C134.21,258.26,137.67,266.81,127.49,261.69z"/>
	<path class="st39" d="M132.55,150.14c-2.47-0.84-4.94-1.67-7.42-2.51c-0.08-17.45-1.62-18.68-14.89-11.86
		c-0.16-1.12-0.31-2.25-0.47-3.37c0.06-0.84,0.04-1.69-0.04-2.53c-0.91-11.14,1.22-22.04,2.64-32.99c1.9-0.38,3.8-0.76,5.71-1.15
		c1.04,10.69,11.56,7.19,16.97,11.34c-7.05,1.53-6.76,6.87-5.1,11.67c1.81,5.24,5.98,2.74,9.55,1.54c3.55-1.19,7.2-2.08,10.81-3.09
		c3.1,2.6,0.53,7.58,7.56,10.45c-17.53-2.58-17.53-2.58-15.18,7.31c-0.6,2.33,1.54,6.14-3.62,5.9
		C132.32,140.55,132.76,145.66,132.55,150.14z"/>
	<path class="st0" d="M109.77,132.4c0.15,1.12,0.31,2.25,0.47,3.37c-0.31,1.39-0.63,2.79-0.94,4.18c-2.9-0.91-5.79-1.83-8.82-2.78
		C102.68,133.75,106.11,132.85,109.77,132.4z"/>
	<path class="st51" d="M142.7,134.95c-2.35-9.88-2.35-9.88,15.18-7.31c-7.03-2.87-4.47-7.85-7.57-10.45
		c-0.04-1.72-0.07-3.44-0.11-5.17c0.9-2.48,1.8-4.97,2.7-7.45c1.69-2.49,3.38-4.98,5.06-7.47c0.8-0.15,1.6-0.26,2.41-0.34
		c-0.21,8.92,9.63,5.45,12.71,10.32c0,1.68,0,3.36,0,5.05c-5.46,3.52-3.13,8.44-2.37,13.09c-5.75,5.24-6.01,11.85-4.69,18.86
		c-2.43,4.61-6.82,3.27-10.68,3.53c-0.84,0-1.67-0.01-2.51-0.01c-0.02-0.84-0.03-1.69-0.03-2.53c1.59-3.66,4.45-7.59,0.88-11.18
		c-2.56-2.58-5.96-1.95-8.46,1.06C144.38,134.94,143.54,134.95,142.7,134.95z"/>
	<path class="st1" d="M170.72,125.22c-0.77-4.64-3.09-9.57,2.37-13.09c9.49-0.44,16.22,8.54,26.12,7.62
		c1.72-0.16,6.21,3.82,1.77,7.62c-6.86-0.43-14.08,1.57-20.19-3.8c-0.97-0.85-2.28,1.73-2.52,3.41
		C175.76,126.4,173.24,125.81,170.72,125.22z"/>
	<path class="st52" d="M173.09,107.09c-3.08-4.87-12.93-1.4-12.71-10.32c0.88-2.46,1.76-4.91,2.64-7.37
		c0.76-0.13,1.51-0.27,2.27-0.43c2.81,7.53,8.66,1.58,12.86,2.91C181.22,98.53,180.53,103.93,173.09,107.09z"/>
	<path class="st53" d="M175.24,81.83c3.59-0.89,7.31-1.45,10.76-2.72c7.58-2.8,11.75-0.57,12.45,7.61
		c-5.31-3.16-9.49-1.51-12.98,3.07l-1.2-0.08c0,0-1.2,0.02-1.2,0.02C180.46,87.09,177.85,84.46,175.24,81.83z"/>
	<path class="st54" d="M175.24,81.83c2.61,2.63,5.22,5.26,7.82,7.89c-1.64,0.72-3.28,1.44-4.92,2.17
		c-4.21-1.33-10.06,4.62-12.86-2.9c0.69-3.89,2.24-7.34,5.16-10.09c0.85,0.28,1.7,0.56,2.55,0.85
		C173.74,80.44,174.49,81.13,175.24,81.83z"/>
	<path class="st55" d="M198.41,96.53c1.7,0.25,3.41,0.5,5.11,0.75c-1.13,3.8,2.69,10.9-3.54,10.91c-7.57,0.01-7.56-8.15-9.12-13.86
		C193.38,95.06,195.89,95.8,198.41,96.53z"/>
	<path class="st56" d="M198.41,96.53c-2.52-0.74-5.03-1.47-7.55-2.21c-1.8-1.52-3.6-3.04-5.4-4.55c3.48-4.58,7.66-6.23,12.98-3.06
		c0.86,0.02,1.72,0.04,2.58,0.06C199.3,89.79,198.1,92.96,198.41,96.53z"/>
	<path class="st57" d="M190.82,208.43c-1.98,0.7-6.94-0.75-5.39,2.35c3.05,6.08-2.95,6.87-4.21,10.22c-1.83-1.8-3.66-3.59-5.49-5.39
		c0.49-5.65-9.94-13.85,1.14-16.36c8.83-2,6.97-3.71,3.62-8.8c-2-3.04-3.26-6.57-4.86-9.89c2.65-5.78,3.5-13.64,13.42-9.78
		c-0.56-5.57-6.56-5.94-5.76-10.5c5.64-0.56,11.28-1.11,17.24-1.7c-2.11-6.2-6.03-5.78-9.69-5.9l-0.01,0
		c12.75-7.77,20.94,0.16,29.04,8.47c-0.67,6.1-7.4-0.5-8.75,4.15c-10.5-0.06-10.26,7.1-9.74,14.46
		C197.87,189.32,194.34,198.87,190.82,208.43z"/>
	<path class="st58" d="M175.64,180.57c1.59,3.31,2.86,6.84,4.86,9.89c3.35,5.09,5.21,6.8-3.62,8.8
		c-11.08,2.51-0.65,10.71-1.14,16.36c-5.49,2.61-7.01,7.7-8.13,13.04c-10.94-7.87-19.38-2.37-27.45,5.13
		c-0.85,0-1.71-0.01-2.56-0.01c-0.83-5.9-1.67-11.8-2.5-17.7c1.68,0.83,3.35,1.66,5.03,2.49c3.39,1.42,6.78,1.38,10.17,0.02
		c12.99,0.89,14.56-8.01,15.18-17.72c4.49-4.46,4.87-9.62,2.55-15.23l-0.01-0.01C170.57,183.95,173.1,182.26,175.64,180.57z"/>
	<path class="st59" d="M155.35,147.61c3.86-0.26,8.25,1.07,10.68-3.53c1.52,1.32,3.04,2.65,4.55,3.97c0.01,2.68-0.36,5.5,2.5,7.19
		c-1.01,7.36-1.47,14.96-12.71,11.86c-2.07-0.57-5.85,0.35-7.55,3.33c-4.23-7.61,2.43-12.1,5.06-17.75
		C160.51,149.26,154.99,149.9,155.35,147.61z"/>
	<path class="st60" d="M152.87,175.45c4.67,3.97,16.9-3.32,15.16,10.18l0.01,0.01c-4.29,7.05-8.56,2.63-12.83-0.03
		c-1.05-3.11-2.1-6.22-3.16-9.33L152.87,175.45z"/>
	<path class="st60" d="M157.89,152.68c-2.63,5.65-9.3,10.15-5.06,17.75c0.02,1.67,0.03,3.34,0.05,5.02c0,0-0.82,0.83-0.82,0.83
		c-0.75-0.02-1.35-0.35-1.77-0.97C141.66,163.45,144.31,155.57,157.89,152.68z"/>
	<path class="st31" d="M190.85,152.69c3.66,0.12,7.58-0.3,9.69,5.9c-5.96,0.59-11.6,1.15-17.24,1.7
		C185,156.95,191.33,158.2,190.85,152.69z"/>
	<path class="st31" d="M173.09,155.24c-2.86-1.69-2.49-4.51-2.5-7.19c2.43,0.41,4.85,0.83,7.28,1.24
		C177.58,152.33,175.71,154.09,173.09,155.24z"/>
	<path class="st61" d="M201.39,179.77c-0.52-7.36-0.75-14.53,9.74-14.46c1,1.7,2.01,3.41,3.01,5.11c-0.19,5.2,1.66,11.37-4.15,14.47
		C205.42,187.33,204.05,181.9,201.39,179.77z"/>
	<path class="st62" d="M135.05,107.08c-5.41-4.16-15.93-0.65-16.97-11.34c-1.9,0.38-3.81,0.77-5.71,1.15
		c0.06-3.38,0.12-6.76,0.19-10.14c9.68-2.1,17.86,0.55,24.64,7.71c0,0,0.69-0.21,0.69-0.21c0.05,3.38,0.11,6.76,0.16,10.14
		c-0.99,1.85,2.83,3.55,0.16,5.44C137.16,108.91,136.1,107.99,135.05,107.08z"/>
	<path class="st63" d="M138.05,104.38c-0.06-3.38-0.11-6.76-0.16-10.14c0.77-0.8,1.54-1.61,2.3-2.41c4.19,0.87,8.41-2.8,12.59,0.08
		c-1.21,4.66,4.25,2.67,5.18,5.2c-1.69,2.49-3.38,4.98-5.06,7.47C147.98,102.81,143.11,96.51,138.05,104.38z"/>
	<path class="st64" d="M152.78,91.91c-4.18-2.87-8.4,0.79-12.59-0.08c1.93-6.31,6.26-8.59,12.6-7.52
		C152.79,86.85,152.79,89.38,152.78,91.91z"/>
	<path class="st8" d="M170.44,78.89c-2.92,2.75-4.47,6.2-5.16,10.09c-0.75,0.16-1.51,0.3-2.27,0.42
		c-4.59-5.31-6.29-10.06,2.49-12.77C167.47,76.69,169.32,76.99,170.44,78.89z"/>
	<path class="st65" d="M150.28,175.31c0.43,0.62,1.02,0.95,1.77,0.97c1.05,3.11,2.1,6.22,3.16,9.33c-0.83,3.37-1.67,6.75-2.5,10.12
		c-0.73,0.89-1.46,1.78-2.19,2.67c-1.8,1-3.59,1.99-5.39,2.99c-9.81-4.48-4.38-12.98-4.74-19.64
		C140.04,175.54,145.43,175.14,150.28,175.31z"/>
	<path class="st66" d="M130.02,200.86c-1.2,0.35-2.74,1.36-3.53,0.95c-3.09-1.62-7.94-26.84-5.7-29.09
		c3.27-3.29,4.99,1.02,7.48,1.63c6.27,1.53,8.44,5.78,6.2,11.24C132.42,190.59,128.98,195,130.02,200.86
		C130.03,200.86,130.02,200.86,130.02,200.86z"/>
	<path class="st59" d="M142.7,134.95c0.84,0,1.69-0.01,2.53-0.01c3.63,2.55,2.29,8.82,7.58,10.13c0,0.84,0.02,1.69,0.03,2.53
		c-6.85,0.17-13.26,3.82-20.3,2.54c0.22-4.48-0.23-9.59,6.53-9.29C144.24,141.09,142.1,137.28,142.7,134.95z"/>
	<path class="st67" d="M145.13,201.39c1.8-1,3.59-1.99,5.39-2.99c2.77,6.76-2,13.44-0.22,20.18c-3.39,1.35-6.79,1.4-10.17-0.02
		C141.79,212.84,143.46,207.11,145.13,201.39z"/>
	<path class="st68" d="M135.05,107.08c1.05,0.92,2.11,1.84,3.16,2.75c3.43,3.85,7.2,5.82,12,2.2c0.04,1.72,0.07,3.44,0.11,5.17
		c-3.61,1.02-7.26,1.91-10.81,3.09c-3.57,1.19-7.74,3.7-9.55-1.54C128.29,113.94,128,108.61,135.05,107.08z"/>
	<path class="st69" d="M150.21,112.03c-4.8,3.62-8.57,1.65-12-2.2c2.67-1.89-1.15-3.6-0.16-5.44c5.06-7.87,9.93-1.58,14.85,0.19
		C152.01,107.06,151.11,109.55,150.21,112.03z"/>
	<path class="st70" d="M152.81,145.07c-5.29-1.31-3.96-7.57-7.58-10.13c2.5-3.01,5.9-3.63,8.46-1.06
		C157.25,137.47,154.4,141.41,152.81,145.07z"/>
	<path class="st71" d="M150.3,218.58c-1.78-6.75,2.99-13.43,0.22-20.18c0.73-0.89,1.46-1.78,2.19-2.67
		c4.12,2.06,6.46,8.54,12.78,5.14C164.86,210.58,163.29,219.48,150.3,218.58z"/>
	<path class="st67" d="M165.48,200.87c-6.32,3.41-8.65-3.08-12.78-5.14c0.83-3.37,1.67-6.75,2.5-10.12
		c4.27,2.66,8.53,7.08,12.83,0.03C170.36,191.25,169.97,196.4,165.48,200.87z"/>
</g>
</svg>
